<mxfile host="Electron" modified="2024-04-01T22:37:53.769Z" agent="Mozilla/5.0 (X11; Linux x86_64) AppleWebKit/537.36 (KHTML, like Gecko) draw.io/24.1.0 Chrome/120.0.6099.109 Electron/28.1.0 Safari/537.36" etag="3KxmKwA6KbjKWlbUxRT2" version="24.1.0" type="device">
  <diagram name="Page-1" id="PgKJFkk6jAnnubsRyTZB">
    <mxGraphModel dx="939" dy="600" grid="1" gridSize="10" guides="1" tooltips="1" connect="1" arrows="1" fold="1" page="1" pageScale="1" pageWidth="850" pageHeight="1100" math="0" shadow="0">
      <root>
        <mxCell id="0" />
        <mxCell id="1" parent="0" />
        <mxCell id="EnBFvkyFJHKfj8ujvT5i-1" value="$$$$" style="rounded=0;whiteSpace=wrap;html=1;" vertex="1" parent="1">
          <mxGeometry x="120" y="120" width="40" height="20" as="geometry" />
        </mxCell>
        <mxCell id="EnBFvkyFJHKfj8ujvT5i-55" style="edgeStyle=orthogonalEdgeStyle;rounded=0;orthogonalLoop=1;jettySize=auto;html=1;" edge="1" parent="1" source="EnBFvkyFJHKfj8ujvT5i-2">
          <mxGeometry relative="1" as="geometry">
            <mxPoint x="180" y="150" as="targetPoint" />
          </mxGeometry>
        </mxCell>
        <mxCell id="EnBFvkyFJHKfj8ujvT5i-2" value="$$$A" style="rounded=0;whiteSpace=wrap;html=1;" vertex="1" parent="1">
          <mxGeometry x="120" y="140" width="40" height="20" as="geometry" />
        </mxCell>
        <mxCell id="EnBFvkyFJHKfj8ujvT5i-3" value="TAAA" style="rounded=0;whiteSpace=wrap;html=1;" vertex="1" parent="1">
          <mxGeometry x="120" y="160" width="40" height="20" as="geometry" />
        </mxCell>
        <mxCell id="EnBFvkyFJHKfj8ujvT5i-56" style="edgeStyle=orthogonalEdgeStyle;rounded=0;orthogonalLoop=1;jettySize=auto;html=1;" edge="1" parent="1" source="EnBFvkyFJHKfj8ujvT5i-4">
          <mxGeometry relative="1" as="geometry">
            <mxPoint x="180" y="190" as="targetPoint" />
          </mxGeometry>
        </mxCell>
        <mxCell id="EnBFvkyFJHKfj8ujvT5i-4" value="GTAA" style="rounded=0;whiteSpace=wrap;html=1;" vertex="1" parent="1">
          <mxGeometry x="120" y="180" width="40" height="20" as="geometry" />
        </mxCell>
        <mxCell id="EnBFvkyFJHKfj8ujvT5i-57" style="edgeStyle=orthogonalEdgeStyle;rounded=0;orthogonalLoop=1;jettySize=auto;html=1;" edge="1" parent="1" source="EnBFvkyFJHKfj8ujvT5i-5">
          <mxGeometry relative="1" as="geometry">
            <mxPoint x="180" y="210" as="targetPoint" />
          </mxGeometry>
        </mxCell>
        <mxCell id="EnBFvkyFJHKfj8ujvT5i-5" value="TATA" style="rounded=0;whiteSpace=wrap;html=1;" vertex="1" parent="1">
          <mxGeometry x="120" y="200" width="40" height="20" as="geometry" />
        </mxCell>
        <mxCell id="EnBFvkyFJHKfj8ujvT5i-62" style="edgeStyle=orthogonalEdgeStyle;rounded=0;orthogonalLoop=1;jettySize=auto;html=1;" edge="1" parent="1" source="EnBFvkyFJHKfj8ujvT5i-6">
          <mxGeometry relative="1" as="geometry">
            <mxPoint x="180" y="230" as="targetPoint" />
          </mxGeometry>
        </mxCell>
        <mxCell id="EnBFvkyFJHKfj8ujvT5i-6" value="GCTA" style="rounded=0;whiteSpace=wrap;html=1;" vertex="1" parent="1">
          <mxGeometry x="120" y="220" width="40" height="20" as="geometry" />
        </mxCell>
        <mxCell id="EnBFvkyFJHKfj8ujvT5i-7" value="AGTA" style="rounded=0;whiteSpace=wrap;html=1;" vertex="1" parent="1">
          <mxGeometry x="120" y="240" width="40" height="20" as="geometry" />
        </mxCell>
        <mxCell id="EnBFvkyFJHKfj8ujvT5i-8" value="CGTA" style="rounded=0;whiteSpace=wrap;html=1;" vertex="1" parent="1">
          <mxGeometry x="120" y="260" width="40" height="20" as="geometry" />
        </mxCell>
        <mxCell id="EnBFvkyFJHKfj8ujvT5i-9" value="TGTA" style="rounded=0;whiteSpace=wrap;html=1;" vertex="1" parent="1">
          <mxGeometry x="120" y="280" width="40" height="20" as="geometry" />
        </mxCell>
        <mxCell id="EnBFvkyFJHKfj8ujvT5i-63" style="edgeStyle=orthogonalEdgeStyle;rounded=0;orthogonalLoop=1;jettySize=auto;html=1;" edge="1" parent="1" source="EnBFvkyFJHKfj8ujvT5i-10">
          <mxGeometry relative="1" as="geometry">
            <mxPoint x="180" y="310" as="targetPoint" />
          </mxGeometry>
        </mxCell>
        <mxCell id="EnBFvkyFJHKfj8ujvT5i-10" value="$$AC" style="rounded=0;whiteSpace=wrap;html=1;" vertex="1" parent="1">
          <mxGeometry x="120" y="300" width="40" height="20" as="geometry" />
        </mxCell>
        <mxCell id="EnBFvkyFJHKfj8ujvT5i-64" style="edgeStyle=orthogonalEdgeStyle;rounded=0;orthogonalLoop=1;jettySize=auto;html=1;" edge="1" parent="1" source="EnBFvkyFJHKfj8ujvT5i-11">
          <mxGeometry relative="1" as="geometry">
            <mxPoint x="180" y="330" as="targetPoint" />
          </mxGeometry>
        </mxCell>
        <mxCell id="EnBFvkyFJHKfj8ujvT5i-11" value="TTGC" style="rounded=0;whiteSpace=wrap;html=1;" vertex="1" parent="1">
          <mxGeometry x="120" y="320" width="40" height="20" as="geometry" />
        </mxCell>
        <mxCell id="EnBFvkyFJHKfj8ujvT5i-65" style="edgeStyle=orthogonalEdgeStyle;rounded=0;orthogonalLoop=1;jettySize=auto;html=1;" edge="1" parent="1" source="EnBFvkyFJHKfj8ujvT5i-12">
          <mxGeometry relative="1" as="geometry">
            <mxPoint x="180" y="350" as="targetPoint" />
          </mxGeometry>
        </mxCell>
        <mxCell id="EnBFvkyFJHKfj8ujvT5i-12" value="GTAG" style="rounded=0;whiteSpace=wrap;html=1;" vertex="1" parent="1">
          <mxGeometry x="120" y="340" width="40" height="20" as="geometry" />
        </mxCell>
        <mxCell id="EnBFvkyFJHKfj8ujvT5i-66" style="edgeStyle=orthogonalEdgeStyle;rounded=0;orthogonalLoop=1;jettySize=auto;html=1;" edge="1" parent="1" source="EnBFvkyFJHKfj8ujvT5i-13">
          <mxGeometry relative="1" as="geometry">
            <mxPoint x="180" y="370" as="targetPoint" />
          </mxGeometry>
        </mxCell>
        <mxCell id="EnBFvkyFJHKfj8ujvT5i-13" value="$ACG" style="rounded=0;whiteSpace=wrap;html=1;" vertex="1" parent="1">
          <mxGeometry x="120" y="360" width="40" height="20" as="geometry" />
        </mxCell>
        <mxCell id="EnBFvkyFJHKfj8ujvT5i-67" style="edgeStyle=orthogonalEdgeStyle;rounded=0;orthogonalLoop=1;jettySize=auto;html=1;" edge="1" parent="1" source="EnBFvkyFJHKfj8ujvT5i-14">
          <mxGeometry relative="1" as="geometry">
            <mxPoint x="180" y="390" as="targetPoint" />
          </mxGeometry>
        </mxCell>
        <mxCell id="EnBFvkyFJHKfj8ujvT5i-14" value="$$TG" style="rounded=0;whiteSpace=wrap;html=1;" vertex="1" parent="1">
          <mxGeometry x="120" y="380" width="40" height="20" as="geometry" />
        </mxCell>
        <mxCell id="EnBFvkyFJHKfj8ujvT5i-78" style="edgeStyle=orthogonalEdgeStyle;rounded=0;orthogonalLoop=1;jettySize=auto;html=1;" edge="1" parent="1" source="EnBFvkyFJHKfj8ujvT5i-15">
          <mxGeometry relative="1" as="geometry">
            <mxPoint x="180" y="410" as="targetPoint" />
          </mxGeometry>
        </mxCell>
        <mxCell id="EnBFvkyFJHKfj8ujvT5i-15" value="TTTG" style="rounded=0;whiteSpace=wrap;html=1;" vertex="1" parent="1">
          <mxGeometry x="120" y="400" width="40" height="20" as="geometry" />
        </mxCell>
        <mxCell id="EnBFvkyFJHKfj8ujvT5i-69" style="edgeStyle=orthogonalEdgeStyle;rounded=0;orthogonalLoop=1;jettySize=auto;html=1;" edge="1" parent="1" source="EnBFvkyFJHKfj8ujvT5i-16">
          <mxGeometry relative="1" as="geometry">
            <mxPoint x="180" y="430" as="targetPoint" />
          </mxGeometry>
        </mxCell>
        <mxCell id="EnBFvkyFJHKfj8ujvT5i-16" value="$$$T" style="rounded=0;whiteSpace=wrap;html=1;" vertex="1" parent="1">
          <mxGeometry x="120" y="420" width="40" height="20" as="geometry" />
        </mxCell>
        <mxCell id="EnBFvkyFJHKfj8ujvT5i-96" style="edgeStyle=orthogonalEdgeStyle;rounded=0;orthogonalLoop=1;jettySize=auto;html=1;" edge="1" parent="1" source="EnBFvkyFJHKfj8ujvT5i-17">
          <mxGeometry relative="1" as="geometry">
            <mxPoint x="180" y="450" as="targetPoint" />
          </mxGeometry>
        </mxCell>
        <mxCell id="EnBFvkyFJHKfj8ujvT5i-17" value="ATAT" style="rounded=0;whiteSpace=wrap;html=1;" vertex="1" parent="1">
          <mxGeometry x="120" y="440" width="40" height="20" as="geometry" />
        </mxCell>
        <mxCell id="EnBFvkyFJHKfj8ujvT5i-18" value="CTAT" style="rounded=0;whiteSpace=wrap;html=1;" vertex="1" parent="1">
          <mxGeometry x="120" y="460" width="40" height="20" as="geometry" />
        </mxCell>
        <mxCell id="EnBFvkyFJHKfj8ujvT5i-19" value="GTAT" style="rounded=0;whiteSpace=wrap;html=1;" vertex="1" parent="1">
          <mxGeometry x="120" y="480" width="40" height="20" as="geometry" />
        </mxCell>
        <mxCell id="EnBFvkyFJHKfj8ujvT5i-71" style="edgeStyle=orthogonalEdgeStyle;rounded=0;orthogonalLoop=1;jettySize=auto;html=1;" edge="1" parent="1" source="EnBFvkyFJHKfj8ujvT5i-20">
          <mxGeometry relative="1" as="geometry">
            <mxPoint x="180" y="510" as="targetPoint" />
          </mxGeometry>
        </mxCell>
        <mxCell id="EnBFvkyFJHKfj8ujvT5i-20" value="TGCT" style="rounded=0;whiteSpace=wrap;html=1;" vertex="1" parent="1">
          <mxGeometry x="120" y="500" width="40" height="20" as="geometry" />
        </mxCell>
        <mxCell id="EnBFvkyFJHKfj8ujvT5i-72" style="edgeStyle=orthogonalEdgeStyle;rounded=0;orthogonalLoop=1;jettySize=auto;html=1;" edge="1" parent="1" source="EnBFvkyFJHKfj8ujvT5i-21">
          <mxGeometry relative="1" as="geometry">
            <mxPoint x="180" y="530" as="targetPoint" />
          </mxGeometry>
        </mxCell>
        <mxCell id="EnBFvkyFJHKfj8ujvT5i-21" value="TAGT" style="rounded=0;whiteSpace=wrap;html=1;" vertex="1" parent="1">
          <mxGeometry x="120" y="520" width="40" height="20" as="geometry" />
        </mxCell>
        <mxCell id="EnBFvkyFJHKfj8ujvT5i-73" style="edgeStyle=orthogonalEdgeStyle;rounded=0;orthogonalLoop=1;jettySize=auto;html=1;" edge="1" parent="1" source="EnBFvkyFJHKfj8ujvT5i-22">
          <mxGeometry relative="1" as="geometry">
            <mxPoint x="180" y="550" as="targetPoint" />
          </mxGeometry>
        </mxCell>
        <mxCell id="EnBFvkyFJHKfj8ujvT5i-22" value="ACGT" style="rounded=0;whiteSpace=wrap;html=1;" vertex="1" parent="1">
          <mxGeometry x="120" y="540" width="40" height="20" as="geometry" />
        </mxCell>
        <mxCell id="EnBFvkyFJHKfj8ujvT5i-23" value="$TGT" style="rounded=0;whiteSpace=wrap;html=1;" vertex="1" parent="1">
          <mxGeometry x="120" y="560" width="40" height="20" as="geometry" />
        </mxCell>
        <mxCell id="EnBFvkyFJHKfj8ujvT5i-74" style="edgeStyle=orthogonalEdgeStyle;rounded=0;orthogonalLoop=1;jettySize=auto;html=1;" edge="1" parent="1" source="EnBFvkyFJHKfj8ujvT5i-24">
          <mxGeometry relative="1" as="geometry">
            <mxPoint x="180" y="590" as="targetPoint" />
          </mxGeometry>
        </mxCell>
        <mxCell id="EnBFvkyFJHKfj8ujvT5i-24" value="TGTT" style="rounded=0;whiteSpace=wrap;html=1;" vertex="1" parent="1">
          <mxGeometry x="120" y="580" width="40" height="20" as="geometry" />
        </mxCell>
        <mxCell id="EnBFvkyFJHKfj8ujvT5i-75" style="edgeStyle=orthogonalEdgeStyle;rounded=0;orthogonalLoop=1;jettySize=auto;html=1;" edge="1" parent="1" source="EnBFvkyFJHKfj8ujvT5i-25">
          <mxGeometry relative="1" as="geometry">
            <mxPoint x="180" y="610" as="targetPoint" />
          </mxGeometry>
        </mxCell>
        <mxCell id="EnBFvkyFJHKfj8ujvT5i-25" value="GTTT" style="rounded=0;whiteSpace=wrap;html=1;" vertex="1" parent="1">
          <mxGeometry x="120" y="600" width="40" height="20" as="geometry" />
        </mxCell>
        <mxCell id="EnBFvkyFJHKfj8ujvT5i-28" value="" style="endArrow=classic;html=1;rounded=0;" edge="1" parent="1">
          <mxGeometry width="50" height="50" relative="1" as="geometry">
            <mxPoint x="90" y="149.83" as="sourcePoint" />
            <mxPoint x="120" y="149.83" as="targetPoint" />
          </mxGeometry>
        </mxCell>
        <mxCell id="EnBFvkyFJHKfj8ujvT5i-29" value="" style="endArrow=classic;html=1;rounded=0;" edge="1" parent="1">
          <mxGeometry width="50" height="50" relative="1" as="geometry">
            <mxPoint x="90" y="169.83" as="sourcePoint" />
            <mxPoint x="120" y="169.83" as="targetPoint" />
          </mxGeometry>
        </mxCell>
        <mxCell id="EnBFvkyFJHKfj8ujvT5i-30" value="" style="endArrow=classic;html=1;rounded=0;" edge="1" parent="1">
          <mxGeometry width="50" height="50" relative="1" as="geometry">
            <mxPoint x="90" y="189.83" as="sourcePoint" />
            <mxPoint x="120" y="189.83" as="targetPoint" />
          </mxGeometry>
        </mxCell>
        <mxCell id="EnBFvkyFJHKfj8ujvT5i-31" value="" style="endArrow=classic;html=1;rounded=0;" edge="1" parent="1">
          <mxGeometry width="50" height="50" relative="1" as="geometry">
            <mxPoint x="90" y="209.83" as="sourcePoint" />
            <mxPoint x="120" y="209.83" as="targetPoint" />
          </mxGeometry>
        </mxCell>
        <mxCell id="EnBFvkyFJHKfj8ujvT5i-32" value="" style="endArrow=classic;html=1;rounded=0;" edge="1" parent="1">
          <mxGeometry width="50" height="50" relative="1" as="geometry">
            <mxPoint x="90" y="229.92" as="sourcePoint" />
            <mxPoint x="120" y="229.92" as="targetPoint" />
          </mxGeometry>
        </mxCell>
        <mxCell id="EnBFvkyFJHKfj8ujvT5i-33" value="" style="endArrow=classic;html=1;rounded=0;" edge="1" parent="1">
          <mxGeometry width="50" height="50" relative="1" as="geometry">
            <mxPoint x="90" y="249.75" as="sourcePoint" />
            <mxPoint x="120" y="249.75" as="targetPoint" />
          </mxGeometry>
        </mxCell>
        <mxCell id="EnBFvkyFJHKfj8ujvT5i-34" value="" style="endArrow=classic;html=1;rounded=0;" edge="1" parent="1">
          <mxGeometry width="50" height="50" relative="1" as="geometry">
            <mxPoint x="90" y="269.75" as="sourcePoint" />
            <mxPoint x="120" y="269.75" as="targetPoint" />
          </mxGeometry>
        </mxCell>
        <mxCell id="EnBFvkyFJHKfj8ujvT5i-35" value="" style="endArrow=classic;html=1;rounded=0;" edge="1" parent="1">
          <mxGeometry width="50" height="50" relative="1" as="geometry">
            <mxPoint x="90" y="289.75" as="sourcePoint" />
            <mxPoint x="120" y="289.75" as="targetPoint" />
          </mxGeometry>
        </mxCell>
        <mxCell id="EnBFvkyFJHKfj8ujvT5i-36" value="" style="endArrow=classic;html=1;rounded=0;" edge="1" parent="1">
          <mxGeometry width="50" height="50" relative="1" as="geometry">
            <mxPoint x="90" y="309.75" as="sourcePoint" />
            <mxPoint x="120" y="309.75" as="targetPoint" />
          </mxGeometry>
        </mxCell>
        <mxCell id="EnBFvkyFJHKfj8ujvT5i-37" value="" style="endArrow=classic;html=1;rounded=0;" edge="1" parent="1">
          <mxGeometry width="50" height="50" relative="1" as="geometry">
            <mxPoint x="90" y="329.79999999999995" as="sourcePoint" />
            <mxPoint x="120" y="329.79999999999995" as="targetPoint" />
          </mxGeometry>
        </mxCell>
        <mxCell id="EnBFvkyFJHKfj8ujvT5i-38" value="" style="endArrow=classic;html=1;rounded=0;" edge="1" parent="1">
          <mxGeometry width="50" height="50" relative="1" as="geometry">
            <mxPoint x="90" y="349.63" as="sourcePoint" />
            <mxPoint x="120" y="349.63" as="targetPoint" />
          </mxGeometry>
        </mxCell>
        <mxCell id="EnBFvkyFJHKfj8ujvT5i-39" value="" style="endArrow=classic;html=1;rounded=0;" edge="1" parent="1">
          <mxGeometry width="50" height="50" relative="1" as="geometry">
            <mxPoint x="90" y="369.63" as="sourcePoint" />
            <mxPoint x="120" y="369.63" as="targetPoint" />
          </mxGeometry>
        </mxCell>
        <mxCell id="EnBFvkyFJHKfj8ujvT5i-40" value="" style="endArrow=classic;html=1;rounded=0;" edge="1" parent="1">
          <mxGeometry width="50" height="50" relative="1" as="geometry">
            <mxPoint x="90" y="389.63" as="sourcePoint" />
            <mxPoint x="120" y="389.63" as="targetPoint" />
          </mxGeometry>
        </mxCell>
        <mxCell id="EnBFvkyFJHKfj8ujvT5i-41" value="" style="endArrow=classic;html=1;rounded=0;" edge="1" parent="1">
          <mxGeometry width="50" height="50" relative="1" as="geometry">
            <mxPoint x="90" y="409.63" as="sourcePoint" />
            <mxPoint x="120" y="409.63" as="targetPoint" />
          </mxGeometry>
        </mxCell>
        <mxCell id="EnBFvkyFJHKfj8ujvT5i-42" value="" style="endArrow=classic;html=1;rounded=0;" edge="1" parent="1">
          <mxGeometry width="50" height="50" relative="1" as="geometry">
            <mxPoint x="90" y="429.79999999999995" as="sourcePoint" />
            <mxPoint x="120" y="429.79999999999995" as="targetPoint" />
          </mxGeometry>
        </mxCell>
        <mxCell id="EnBFvkyFJHKfj8ujvT5i-43" value="" style="endArrow=classic;html=1;rounded=0;" edge="1" parent="1">
          <mxGeometry width="50" height="50" relative="1" as="geometry">
            <mxPoint x="90" y="449.63" as="sourcePoint" />
            <mxPoint x="120" y="449.63" as="targetPoint" />
          </mxGeometry>
        </mxCell>
        <mxCell id="EnBFvkyFJHKfj8ujvT5i-44" value="" style="endArrow=classic;html=1;rounded=0;" edge="1" parent="1">
          <mxGeometry width="50" height="50" relative="1" as="geometry">
            <mxPoint x="90" y="469.63" as="sourcePoint" />
            <mxPoint x="120" y="469.63" as="targetPoint" />
          </mxGeometry>
        </mxCell>
        <mxCell id="EnBFvkyFJHKfj8ujvT5i-45" value="" style="endArrow=classic;html=1;rounded=0;" edge="1" parent="1">
          <mxGeometry width="50" height="50" relative="1" as="geometry">
            <mxPoint x="90" y="489.63" as="sourcePoint" />
            <mxPoint x="120" y="489.63" as="targetPoint" />
          </mxGeometry>
        </mxCell>
        <mxCell id="EnBFvkyFJHKfj8ujvT5i-46" value="" style="endArrow=classic;html=1;rounded=0;" edge="1" parent="1">
          <mxGeometry width="50" height="50" relative="1" as="geometry">
            <mxPoint x="90" y="509.63" as="sourcePoint" />
            <mxPoint x="120" y="509.63" as="targetPoint" />
          </mxGeometry>
        </mxCell>
        <mxCell id="EnBFvkyFJHKfj8ujvT5i-47" value="" style="endArrow=classic;html=1;rounded=0;" edge="1" parent="1">
          <mxGeometry width="50" height="50" relative="1" as="geometry">
            <mxPoint x="90" y="529.8" as="sourcePoint" />
            <mxPoint x="120" y="529.8" as="targetPoint" />
          </mxGeometry>
        </mxCell>
        <mxCell id="EnBFvkyFJHKfj8ujvT5i-48" value="" style="endArrow=classic;html=1;rounded=0;" edge="1" parent="1">
          <mxGeometry width="50" height="50" relative="1" as="geometry">
            <mxPoint x="90" y="549.63" as="sourcePoint" />
            <mxPoint x="120" y="549.63" as="targetPoint" />
          </mxGeometry>
        </mxCell>
        <mxCell id="EnBFvkyFJHKfj8ujvT5i-49" value="" style="endArrow=classic;html=1;rounded=0;" edge="1" parent="1">
          <mxGeometry width="50" height="50" relative="1" as="geometry">
            <mxPoint x="90" y="569.63" as="sourcePoint" />
            <mxPoint x="120" y="569.63" as="targetPoint" />
          </mxGeometry>
        </mxCell>
        <mxCell id="EnBFvkyFJHKfj8ujvT5i-50" value="" style="endArrow=classic;html=1;rounded=0;" edge="1" parent="1">
          <mxGeometry width="50" height="50" relative="1" as="geometry">
            <mxPoint x="90" y="589.63" as="sourcePoint" />
            <mxPoint x="120" y="589.63" as="targetPoint" />
          </mxGeometry>
        </mxCell>
        <mxCell id="EnBFvkyFJHKfj8ujvT5i-51" value="" style="endArrow=classic;html=1;rounded=0;" edge="1" parent="1">
          <mxGeometry width="50" height="50" relative="1" as="geometry">
            <mxPoint x="90" y="609.63" as="sourcePoint" />
            <mxPoint x="120" y="609.63" as="targetPoint" />
          </mxGeometry>
        </mxCell>
        <mxCell id="EnBFvkyFJHKfj8ujvT5i-53" value="" style="endArrow=classic;html=1;rounded=0;" edge="1" parent="1">
          <mxGeometry width="50" height="50" relative="1" as="geometry">
            <mxPoint x="160" y="130" as="sourcePoint" />
            <mxPoint x="180" y="120" as="targetPoint" />
          </mxGeometry>
        </mxCell>
        <mxCell id="EnBFvkyFJHKfj8ujvT5i-54" value="" style="endArrow=classic;html=1;rounded=0;" edge="1" parent="1">
          <mxGeometry width="50" height="50" relative="1" as="geometry">
            <mxPoint x="160" y="130" as="sourcePoint" />
            <mxPoint x="180" y="140" as="targetPoint" />
          </mxGeometry>
        </mxCell>
        <mxCell id="EnBFvkyFJHKfj8ujvT5i-58" value="" style="endArrow=classic;html=1;rounded=0;" edge="1" parent="1">
          <mxGeometry width="50" height="50" relative="1" as="geometry">
            <mxPoint x="160" y="250" as="sourcePoint" />
            <mxPoint x="180" y="240" as="targetPoint" />
          </mxGeometry>
        </mxCell>
        <mxCell id="EnBFvkyFJHKfj8ujvT5i-59" value="" style="endArrow=classic;html=1;rounded=0;exitX=1;exitY=0.5;exitDx=0;exitDy=0;" edge="1" parent="1" source="EnBFvkyFJHKfj8ujvT5i-7">
          <mxGeometry width="50" height="50" relative="1" as="geometry">
            <mxPoint x="190" y="310" as="sourcePoint" />
            <mxPoint x="180" y="250" as="targetPoint" />
          </mxGeometry>
        </mxCell>
        <mxCell id="EnBFvkyFJHKfj8ujvT5i-60" value="" style="endArrow=classic;html=1;rounded=0;" edge="1" parent="1">
          <mxGeometry width="50" height="50" relative="1" as="geometry">
            <mxPoint x="160" y="250" as="sourcePoint" />
            <mxPoint x="180" y="260" as="targetPoint" />
          </mxGeometry>
        </mxCell>
        <mxCell id="EnBFvkyFJHKfj8ujvT5i-76" value="" style="endArrow=classic;html=1;rounded=0;" edge="1" parent="1">
          <mxGeometry width="50" height="50" relative="1" as="geometry">
            <mxPoint x="160" y="570" as="sourcePoint" />
            <mxPoint x="180" y="560" as="targetPoint" />
          </mxGeometry>
        </mxCell>
        <mxCell id="EnBFvkyFJHKfj8ujvT5i-77" value="" style="endArrow=classic;html=1;rounded=0;exitX=1;exitY=0.5;exitDx=0;exitDy=0;" edge="1" parent="1" source="EnBFvkyFJHKfj8ujvT5i-23">
          <mxGeometry width="50" height="50" relative="1" as="geometry">
            <mxPoint x="180" y="575" as="sourcePoint" />
            <mxPoint x="180" y="580" as="targetPoint" />
          </mxGeometry>
        </mxCell>
        <mxCell id="EnBFvkyFJHKfj8ujvT5i-79" value="A" style="text;html=1;align=center;verticalAlign=middle;whiteSpace=wrap;rounded=0;" vertex="1" parent="1">
          <mxGeometry x="180" y="120" width="20" height="10" as="geometry" />
        </mxCell>
        <mxCell id="EnBFvkyFJHKfj8ujvT5i-80" value="T" style="text;html=1;align=center;verticalAlign=middle;whiteSpace=wrap;rounded=0;" vertex="1" parent="1">
          <mxGeometry x="180" y="130" width="20" height="10" as="geometry" />
        </mxCell>
        <mxCell id="EnBFvkyFJHKfj8ujvT5i-82" value="C" style="text;html=1;align=center;verticalAlign=middle;whiteSpace=wrap;rounded=0;" vertex="1" parent="1">
          <mxGeometry x="180" y="145" width="20" height="10" as="geometry" />
        </mxCell>
        <mxCell id="EnBFvkyFJHKfj8ujvT5i-83" value="A" style="text;html=1;align=center;verticalAlign=middle;whiteSpace=wrap;rounded=0;" vertex="1" parent="1">
          <mxGeometry x="180" y="185" width="20" height="10" as="geometry" />
        </mxCell>
        <mxCell id="EnBFvkyFJHKfj8ujvT5i-84" value="T" style="text;html=1;align=center;verticalAlign=middle;whiteSpace=wrap;rounded=0;" vertex="1" parent="1">
          <mxGeometry x="180" y="205" width="20" height="10" as="geometry" />
        </mxCell>
        <mxCell id="EnBFvkyFJHKfj8ujvT5i-85" value="T" style="text;html=1;align=center;verticalAlign=middle;whiteSpace=wrap;rounded=0;" vertex="1" parent="1">
          <mxGeometry x="180" y="225" width="20" height="10" as="geometry" />
        </mxCell>
        <mxCell id="EnBFvkyFJHKfj8ujvT5i-86" value="A" style="text;html=1;align=center;verticalAlign=middle;whiteSpace=wrap;rounded=0;" vertex="1" parent="1">
          <mxGeometry x="180" y="235" width="20" height="10" as="geometry" />
        </mxCell>
        <mxCell id="EnBFvkyFJHKfj8ujvT5i-87" value="G" style="text;html=1;align=center;verticalAlign=middle;whiteSpace=wrap;rounded=0;" vertex="1" parent="1">
          <mxGeometry x="180" y="245" width="20" height="10" as="geometry" />
        </mxCell>
        <mxCell id="EnBFvkyFJHKfj8ujvT5i-88" value="T" style="text;html=1;align=center;verticalAlign=middle;whiteSpace=wrap;rounded=0;" vertex="1" parent="1">
          <mxGeometry x="180" y="255" width="20" height="10" as="geometry" />
        </mxCell>
        <mxCell id="EnBFvkyFJHKfj8ujvT5i-89" value="G" style="text;html=1;align=center;verticalAlign=middle;whiteSpace=wrap;rounded=0;" vertex="1" parent="1">
          <mxGeometry x="180" y="305" width="20" height="10" as="geometry" />
        </mxCell>
        <mxCell id="EnBFvkyFJHKfj8ujvT5i-91" value="T" style="text;html=1;align=center;verticalAlign=middle;whiteSpace=wrap;rounded=0;" vertex="1" parent="1">
          <mxGeometry x="180" y="325" width="20" height="10" as="geometry" />
        </mxCell>
        <mxCell id="EnBFvkyFJHKfj8ujvT5i-92" value="T" style="text;html=1;align=center;verticalAlign=middle;whiteSpace=wrap;rounded=0;" vertex="1" parent="1">
          <mxGeometry x="180" y="345" width="20" height="10" as="geometry" />
        </mxCell>
        <mxCell id="EnBFvkyFJHKfj8ujvT5i-93" value="T" style="text;html=1;align=center;verticalAlign=middle;whiteSpace=wrap;rounded=0;" vertex="1" parent="1">
          <mxGeometry x="180" y="365" width="20" height="10" as="geometry" />
        </mxCell>
        <mxCell id="EnBFvkyFJHKfj8ujvT5i-94" value="T" style="text;html=1;align=center;verticalAlign=middle;whiteSpace=wrap;rounded=0;" vertex="1" parent="1">
          <mxGeometry x="180" y="385" width="20" height="10" as="geometry" />
        </mxCell>
        <mxCell id="EnBFvkyFJHKfj8ujvT5i-95" value="C" style="text;html=1;align=center;verticalAlign=middle;whiteSpace=wrap;rounded=0;" vertex="1" parent="1">
          <mxGeometry x="180" y="405" width="20" height="10" as="geometry" />
        </mxCell>
        <mxCell id="EnBFvkyFJHKfj8ujvT5i-97" value="G" style="text;html=1;align=center;verticalAlign=middle;whiteSpace=wrap;rounded=0;" vertex="1" parent="1">
          <mxGeometry x="180" y="425" width="20" height="10" as="geometry" />
        </mxCell>
        <mxCell id="EnBFvkyFJHKfj8ujvT5i-98" value="A" style="text;html=1;align=center;verticalAlign=middle;whiteSpace=wrap;rounded=0;" vertex="1" parent="1">
          <mxGeometry x="180" y="445" width="20" height="10" as="geometry" />
        </mxCell>
        <mxCell id="EnBFvkyFJHKfj8ujvT5i-99" value="A" style="text;html=1;align=center;verticalAlign=middle;whiteSpace=wrap;rounded=0;" vertex="1" parent="1">
          <mxGeometry x="180" y="505" width="20" height="10" as="geometry" />
        </mxCell>
        <mxCell id="EnBFvkyFJHKfj8ujvT5i-100" value="A" style="text;html=1;align=center;verticalAlign=middle;whiteSpace=wrap;rounded=0;" vertex="1" parent="1">
          <mxGeometry x="180" y="525" width="20" height="10" as="geometry" />
        </mxCell>
        <mxCell id="EnBFvkyFJHKfj8ujvT5i-101" value="A" style="text;html=1;align=center;verticalAlign=middle;whiteSpace=wrap;rounded=0;" vertex="1" parent="1">
          <mxGeometry x="180" y="545" width="20" height="10" as="geometry" />
        </mxCell>
        <mxCell id="EnBFvkyFJHKfj8ujvT5i-102" value="A" style="text;html=1;align=center;verticalAlign=middle;whiteSpace=wrap;rounded=0;" vertex="1" parent="1">
          <mxGeometry x="180" y="560" width="20" height="10" as="geometry" />
        </mxCell>
        <mxCell id="EnBFvkyFJHKfj8ujvT5i-103" value="T" style="text;html=1;align=center;verticalAlign=middle;whiteSpace=wrap;rounded=0;" vertex="1" parent="1">
          <mxGeometry x="180" y="570" width="20" height="10" as="geometry" />
        </mxCell>
        <mxCell id="EnBFvkyFJHKfj8ujvT5i-104" value="T" style="text;html=1;align=center;verticalAlign=middle;whiteSpace=wrap;rounded=0;" vertex="1" parent="1">
          <mxGeometry x="180" y="585" width="20" height="10" as="geometry" />
        </mxCell>
        <mxCell id="EnBFvkyFJHKfj8ujvT5i-105" value="G" style="text;html=1;align=center;verticalAlign=middle;whiteSpace=wrap;rounded=0;" vertex="1" parent="1">
          <mxGeometry x="180" y="605" width="20" height="10" as="geometry" />
        </mxCell>
        <mxCell id="EnBFvkyFJHKfj8ujvT5i-106" value="A" style="text;html=1;align=center;verticalAlign=middle;whiteSpace=wrap;rounded=0;" vertex="1" parent="1">
          <mxGeometry x="70" y="145" width="20" height="10" as="geometry" />
        </mxCell>
        <mxCell id="EnBFvkyFJHKfj8ujvT5i-107" value="A" style="text;html=1;align=center;verticalAlign=middle;whiteSpace=wrap;rounded=0;" vertex="1" parent="1">
          <mxGeometry x="70" y="165" width="20" height="10" as="geometry" />
        </mxCell>
        <mxCell id="EnBFvkyFJHKfj8ujvT5i-108" value="A" style="text;html=1;align=center;verticalAlign=middle;whiteSpace=wrap;rounded=0;" vertex="1" parent="1">
          <mxGeometry x="70" y="185" width="20" height="10" as="geometry" />
        </mxCell>
        <mxCell id="EnBFvkyFJHKfj8ujvT5i-109" value="A" style="text;html=1;align=center;verticalAlign=middle;whiteSpace=wrap;rounded=0;" vertex="1" parent="1">
          <mxGeometry x="70" y="205" width="20" height="10" as="geometry" />
        </mxCell>
        <mxCell id="EnBFvkyFJHKfj8ujvT5i-110" value="A" style="text;html=1;align=center;verticalAlign=middle;whiteSpace=wrap;rounded=0;" vertex="1" parent="1">
          <mxGeometry x="70" y="225" width="20" height="10" as="geometry" />
        </mxCell>
        <mxCell id="EnBFvkyFJHKfj8ujvT5i-111" value="A" style="text;html=1;align=center;verticalAlign=middle;whiteSpace=wrap;rounded=0;" vertex="1" parent="1">
          <mxGeometry x="70" y="245" width="20" height="10" as="geometry" />
        </mxCell>
        <mxCell id="EnBFvkyFJHKfj8ujvT5i-112" value="A" style="text;html=1;align=center;verticalAlign=middle;whiteSpace=wrap;rounded=0;" vertex="1" parent="1">
          <mxGeometry x="70" y="265" width="20" height="10" as="geometry" />
        </mxCell>
        <mxCell id="EnBFvkyFJHKfj8ujvT5i-113" value="A" style="text;html=1;align=center;verticalAlign=middle;whiteSpace=wrap;rounded=0;" vertex="1" parent="1">
          <mxGeometry x="70" y="285" width="20" height="10" as="geometry" />
        </mxCell>
        <mxCell id="EnBFvkyFJHKfj8ujvT5i-114" value="C" style="text;html=1;align=center;verticalAlign=middle;whiteSpace=wrap;rounded=0;" vertex="1" parent="1">
          <mxGeometry x="70" y="305" width="20" height="10" as="geometry" />
        </mxCell>
        <mxCell id="EnBFvkyFJHKfj8ujvT5i-115" value="C" style="text;html=1;align=center;verticalAlign=middle;whiteSpace=wrap;rounded=0;" vertex="1" parent="1">
          <mxGeometry x="70" y="325" width="20" height="10" as="geometry" />
        </mxCell>
        <mxCell id="EnBFvkyFJHKfj8ujvT5i-116" value="G" style="text;html=1;align=center;verticalAlign=middle;whiteSpace=wrap;rounded=0;" vertex="1" parent="1">
          <mxGeometry x="70" y="345" width="20" height="10" as="geometry" />
        </mxCell>
        <mxCell id="EnBFvkyFJHKfj8ujvT5i-117" value="G" style="text;html=1;align=center;verticalAlign=middle;whiteSpace=wrap;rounded=0;" vertex="1" parent="1">
          <mxGeometry x="70" y="365" width="20" height="10" as="geometry" />
        </mxCell>
        <mxCell id="EnBFvkyFJHKfj8ujvT5i-118" value="G" style="text;html=1;align=center;verticalAlign=middle;whiteSpace=wrap;rounded=0;" vertex="1" parent="1">
          <mxGeometry x="70" y="385" width="20" height="10" as="geometry" />
        </mxCell>
        <mxCell id="EnBFvkyFJHKfj8ujvT5i-119" value="G" style="text;html=1;align=center;verticalAlign=middle;whiteSpace=wrap;rounded=0;" vertex="1" parent="1">
          <mxGeometry x="70" y="405" width="20" height="10" as="geometry" />
        </mxCell>
        <mxCell id="EnBFvkyFJHKfj8ujvT5i-120" value="T" style="text;html=1;align=center;verticalAlign=middle;whiteSpace=wrap;rounded=0;" vertex="1" parent="1">
          <mxGeometry x="70" y="425" width="20" height="10" as="geometry" />
        </mxCell>
        <mxCell id="EnBFvkyFJHKfj8ujvT5i-121" value="T" style="text;html=1;align=center;verticalAlign=middle;whiteSpace=wrap;rounded=0;" vertex="1" parent="1">
          <mxGeometry x="70" y="445" width="20" height="10" as="geometry" />
        </mxCell>
        <mxCell id="EnBFvkyFJHKfj8ujvT5i-122" value="T" style="text;html=1;align=center;verticalAlign=middle;whiteSpace=wrap;rounded=0;" vertex="1" parent="1">
          <mxGeometry x="70" y="465" width="20" height="10" as="geometry" />
        </mxCell>
        <mxCell id="EnBFvkyFJHKfj8ujvT5i-123" value="T" style="text;html=1;align=center;verticalAlign=middle;whiteSpace=wrap;rounded=0;" vertex="1" parent="1">
          <mxGeometry x="70" y="485" width="20" height="10" as="geometry" />
        </mxCell>
        <mxCell id="EnBFvkyFJHKfj8ujvT5i-124" value="T" style="text;html=1;align=center;verticalAlign=middle;whiteSpace=wrap;rounded=0;" vertex="1" parent="1">
          <mxGeometry x="70" y="505" width="20" height="10" as="geometry" />
        </mxCell>
        <mxCell id="EnBFvkyFJHKfj8ujvT5i-125" value="T" style="text;html=1;align=center;verticalAlign=middle;whiteSpace=wrap;rounded=0;" vertex="1" parent="1">
          <mxGeometry x="70" y="525" width="20" height="10" as="geometry" />
        </mxCell>
        <mxCell id="EnBFvkyFJHKfj8ujvT5i-126" value="T" style="text;html=1;align=center;verticalAlign=middle;whiteSpace=wrap;rounded=0;" vertex="1" parent="1">
          <mxGeometry x="70" y="545" width="20" height="10" as="geometry" />
        </mxCell>
        <mxCell id="EnBFvkyFJHKfj8ujvT5i-127" value="T" style="text;html=1;align=center;verticalAlign=middle;whiteSpace=wrap;rounded=0;" vertex="1" parent="1">
          <mxGeometry x="70" y="565" width="20" height="10" as="geometry" />
        </mxCell>
        <mxCell id="EnBFvkyFJHKfj8ujvT5i-128" value="T" style="text;html=1;align=center;verticalAlign=middle;whiteSpace=wrap;rounded=0;" vertex="1" parent="1">
          <mxGeometry x="70" y="585" width="20" height="10" as="geometry" />
        </mxCell>
        <mxCell id="EnBFvkyFJHKfj8ujvT5i-129" value="T" style="text;html=1;align=center;verticalAlign=middle;whiteSpace=wrap;rounded=0;" vertex="1" parent="1">
          <mxGeometry x="70" y="605" width="20" height="10" as="geometry" />
        </mxCell>
      </root>
    </mxGraphModel>
  </diagram>
</mxfile>
